<svg width="26" height="26" viewBox="0 0 26 26" fill="none" xmlns="http://www.w3.org/2000/svg">
<path d="M18.642 0C23.049 0 26 3.094 26 7.69599V18.3183C26 22.906 23.049 26 18.642 26H7.371C2.964 26 0 22.906 0 18.3183V7.69599C0 3.094 2.964 0 7.371 0H18.642ZM18.434 9.09999C17.992 8.65799 17.264 8.65799 16.822 9.09999L11.453 14.469L9.178 12.194C8.736 11.752 8.008 11.752 7.566 12.194C7.124 12.636 7.124 13.351 7.566 13.806L10.66 16.887C10.881 17.108 11.167 17.212 11.453 17.212C11.752 17.212 12.038 17.108 12.259 16.887L18.434 10.712C18.876 10.27 18.876 9.55499 18.434 9.09999Z" fill="#9D1ADA"/>
</svg>
