<svg width="20" height="20" viewBox="0 0 20 20" fill="none" xmlns="http://www.w3.org/2000/svg">
<path d="M0.694704 6.74692C0.898545 6.8716 1.15997 6.90458 1.414 6.84173L5.29589 5.99446L5.32791 5.98849C5.47694 5.94797 5.61766 5.87317 5.73467 5.77291C5.93943 5.60122 6.05767 5.37084 6.05705 5.14071L6.05675 3.9241C6.05859 3.87397 6.11679 3.7532 6.14512 3.72592C6.15374 3.72021 7.04423 3.06931 10.1031 3.06931C13.1554 3.06879 14.0542 3.71761 14.0549 3.71709C14.0961 3.75372 14.1543 3.87397 14.1558 3.92462L14.1555 4.96201C14.1562 5.32798 14.4518 5.6859 14.8579 5.81213L18.7712 6.82329C19.0733 6.9116 19.3907 6.85549 19.6038 6.67524C19.7544 6.549 19.8363 6.37498 19.8363 6.18355L19.8406 3.35788C19.8418 3.08749 19.7005 2.73503 19.5056 2.51945C19.4126 2.41633 17.1429 0.000259737 10.1034 0C4.12827 0.000259737 1.56672 1.77011 0.92287 2.31322C0.784616 2.42984 0.713487 2.50542 0.700247 2.51997C0.50626 2.73477 0.364927 3.08697 0.365235 3.35632V6.18303C0.365851 6.41394 0.48563 6.61939 0.694704 6.74692Z" fill="#760AA8"/>
<path d="M2.10449 12.2272V12.8877C2.10449 13.1911 2.39701 13.4384 2.75758 13.4384H4.86249C5.22306 13.4384 5.51435 13.1911 5.51435 12.8877V12.2272C5.51435 11.9238 5.22306 11.6758 4.86249 11.6758H2.75758C2.39732 11.6758 2.10449 11.9238 2.10449 12.2272Z" fill="#760AA8"/>
<path d="M9.66279 12.8877V12.2272C9.66279 11.9238 9.37027 11.6758 9.01031 11.6758H6.90479C6.54452 11.6758 6.25293 11.9238 6.25293 12.2272V12.8877C6.25293 13.1911 6.54452 13.4384 6.90479 13.4384H9.01031C9.37057 13.4384 9.66279 13.1911 9.66279 12.8877Z" fill="#760AA8"/>
<path d="M13.8105 12.8877V12.2272C13.8105 11.9238 13.518 11.6758 13.1574 11.6758H11.0525C10.6919 11.6758 10.3994 11.9238 10.3994 12.2272V12.8877C10.3994 13.1911 10.6916 13.4384 11.0525 13.4384H13.1574C13.518 13.4384 13.8105 13.1911 13.8105 12.8877Z" fill="#760AA8"/>
<path d="M17.9586 12.8877V12.2272C17.9586 11.9238 17.6661 11.6758 17.3052 11.6758H15.2003C14.8397 11.6758 14.5469 11.9238 14.5469 12.2272V12.8877C14.5469 13.1911 14.8394 13.4384 15.2003 13.4384H17.3052C17.6661 13.4384 17.9586 13.1911 17.9586 12.8877Z" fill="#760AA8"/>
<path d="M0.651858 10.1588H2.758C3.11734 10.1588 3.40986 9.91127 3.40986 9.6079V8.94739C3.40986 8.64453 3.11734 8.39648 2.758 8.39648H0.651858C0.29252 8.39648 2.42613e-07 8.64453 2.42613e-07 8.94739V9.6079C-0.000307673 9.91127 0.29252 10.1588 0.651858 10.1588Z" fill="#760AA8"/>
<path d="M6.90423 10.1588C7.2648 10.1588 7.55732 9.91127 7.55732 9.6079V8.94739C7.55732 8.64453 7.2648 8.39648 6.90423 8.39648H4.79932C4.43875 8.39648 4.14746 8.64453 4.14746 8.94739V9.6079C4.14746 9.91127 4.43875 10.1588 4.79932 10.1588H6.90423Z" fill="#760AA8"/>
<path d="M11.0523 10.1588C11.4128 10.1588 11.7057 9.91127 11.7057 9.6079V8.94739C11.7057 8.64453 11.4131 8.39648 11.0523 8.39648H8.94734C8.58647 8.39648 8.29395 8.64453 8.29395 8.94739V9.6079C8.29395 9.91127 8.58647 10.1588 8.94734 10.1588H11.0523Z" fill="#760AA8"/>
<path d="M15.2004 8.39648H13.0958C12.7349 8.39648 12.4424 8.64453 12.4424 8.94739V9.6079C12.4424 9.91127 12.7349 10.1588 13.0958 10.1588H15.2004C15.5613 10.1588 15.8522 9.91127 15.8522 9.6079V8.94739C15.8522 8.64453 15.561 8.39648 15.2004 8.39648Z" fill="#760AA8"/>
<path d="M19.3478 8.39648H17.2417C16.8824 8.39648 16.5898 8.64453 16.5898 8.94739V9.6079C16.5898 9.91127 16.8824 10.1588 17.2417 10.1588H19.3478C19.7072 10.1588 19.9997 9.91127 19.9997 9.6079V8.94739C19.9997 8.64453 19.7069 8.39648 19.3478 8.39648Z" fill="#760AA8"/>
<path d="M3.40986 16.1679V15.5077C3.40986 15.2046 3.11734 14.957 2.758 14.957H0.651857C0.29252 14.957 0 15.2046 0 15.5077V16.1679C0 16.4718 0.292828 16.7193 0.651857 16.7193H2.758C3.11734 16.7193 3.40986 16.4718 3.40986 16.1679Z" fill="#760AA8"/>
<path d="M4.79932 16.7193H6.90423C7.2648 16.7193 7.55732 16.4718 7.55732 16.1679V15.5077C7.55732 15.2046 7.2648 14.957 6.90423 14.957H4.79932C4.43875 14.957 4.14746 15.2046 4.14746 15.5077V16.1679C4.14746 16.4718 4.43875 16.7193 4.79932 16.7193Z" fill="#760AA8"/>
<path d="M8.94734 16.7193H11.0523C11.4128 16.7193 11.7057 16.4718 11.7057 16.1679V15.5077C11.7057 15.2046 11.4131 14.957 11.0523 14.957H8.94734C8.58647 14.957 8.29395 15.2046 8.29395 15.5077V16.1679C8.29395 16.4718 8.58647 16.7193 8.94734 16.7193Z" fill="#760AA8"/>
<path d="M13.0948 16.7193H15.1994C15.5603 16.7193 15.8513 16.4718 15.8513 16.1679V15.5077C15.8513 15.2046 15.5603 14.957 15.1994 14.957H13.0948C12.7339 14.957 12.4414 15.2046 12.4414 15.5077V16.1679C12.4417 16.4718 12.7339 16.7193 13.0948 16.7193Z" fill="#760AA8"/>
<path d="M19.3478 14.957H17.2417C16.8824 14.957 16.5898 15.2046 16.5898 15.5077V16.1679C16.5898 16.4718 16.8824 16.7193 17.2417 16.7193H19.3478C19.7072 16.7193 19.9997 16.4718 19.9997 16.1679V15.5077C19.9997 15.2046 19.7069 14.957 19.3478 14.957Z" fill="#760AA8"/>
<path d="M16.9053 18.2383H2.90869C2.54936 18.2383 2.25684 18.4863 2.25684 18.7892V19.4497C2.25684 19.7541 2.54966 20.0006 2.90869 20.0006H16.9053C17.2649 20.0006 17.5575 19.7541 17.5575 19.4497V18.7892C17.5575 18.4863 17.2649 18.2383 16.9053 18.2383Z" fill="#760AA8"/>
</svg>
